<svg xmlns="http://www.w3.org/2000/svg" viewBox="0 0 140 140"><defs><style>.a{fill:#4a7852;}</style></defs><title>icons-6</title><path class="a" d="M102.47,29.71H96.23V26.27c0-3.11-1.61-5-4.21-5H48.39a5.25,5.25,0,0,0-5.31,5v3.44H38a5.53,5.53,0,0,0-5.69,5.48v78.13A5.52,5.52,0,0,0,38,118.78h64.51a5.13,5.13,0,0,0,5.26-5.46V35.19A5.14,5.14,0,0,0,102.47,29.71ZM105,114.16H35v-22h70Zm0-24.68H35V80.7h70ZM105,78H35V70.05h70Zm0-10.64H35V58.47h70ZM35,55.78V35.19a2.8,2.8,0,0,1,3-2.75h6.49a1.37,1.37,0,0,0,1.37-1.37v-4.8A2.55,2.55,0,0,1,48.39,24H92c.4,0,1.48,0,1.48,2.31v4.8a1.37,1.37,0,0,0,1.37,1.37h7.61A2.46,2.46,0,0,1,105,35.19V55.78Z"/></svg>