<svg xmlns="http://www.w3.org/2000/svg" viewBox="0 0 140 140"><defs><style>.a{fill:#4a7852;}</style></defs><title>icons-6</title><path class="a" d="M124.09,67.56v0h0L121.53,53a.68.68,0,0,0-.28-.44l-14.8-10.35h0l-5.53-7.28,1.94-9.68a.68.68,0,0,0-1-.74l-5.65,2.94-4-4.86,0,0v0h0l0,0,0,0,0,0,0,0-.05,0,0,0h-.23l-18.85-.8h-.09l-16,1.5a.68.68,0,0,0-.53.35L49.53,35.87l-6.42.06H43l-12.1,2.29a.68.68,0,0,0-.55.62l-.27,3.69h0l-.79,17.17L16,78.07h0l0,0-.05.1h0v0l0,.07h0v.08h0s0,0,0,0,0,0,0,0a.67.67,0,0,0,0,.07v0h0l0,.06v0l0,0v0h0v0h0l15.2,26.94a.68.68,0,0,0,.59.35h.12l19,12.26h0l.15.07h0l.17,0h.06l24-2.22,24.89,1.29h.19l.07,0,0,0,.06,0,0,0,0,0h0l.11-.1,0,0,.07-.1,0,0a.67.67,0,0,0,0-.14h0v0a.67.67,0,0,0,0-.14s0,0,0,0l-.42-7,12.45-16v0L123.48,78.5v0a.67.67,0,0,0,.06-.12v0a.67.67,0,0,0,0-.13v0h0l.5-10.48h0A.68.68,0,0,0,124.09,67.56Zm-11.92,25-12.9-3.94-.65-10.8,23,.89Zm-13,17h0l.37,6.25L68.33,104.2,79,94.48l13.93-4.32H93l.05,0,.06,0,0,0,.06-.06.05-.05,0,0,0-.06,0-.07v0l0-.06,0-.06s0,0,0,0v0L96,60.81l1.21,16.39h0l1.27,21.17Zm-63.22-61,2.1-4.54,6.21-3.5,5.1-2.88,1.2,9.16L31.49,58.26ZM91.31,25.08l4,26.89-20.6,2,2.91-5.06Zm6.94,47.64L96.79,52.84l8.07-7.91ZM95.34,53.33,93.22,76.47,74.82,55.32l8.64-.84ZM92.15,88.18,68.57,68.92l1.69-4.28,3.4-8.59L93,78.34l-.85,9.24ZM62.79,76.66l-2.87-1.53,7.3-4.83,1.22,9.36ZM31.33,59.94,50.86,48.26l6.68,25.61ZM68.65,81.31l1.69,13L41.32,82,31.46,61.54Zm-1.85,22L44.75,84.91,70.26,95.73l-.48,1.05Zm.4-34.67L59,74.11,52.26,48.26l20.28,6.92ZM41.31,83.8l24,20-9.38.34-17.57-.38,1.2-8ZM69,101.72,71.64,96l.29-.06L76.37,95l-5.86,5.36Zm9.42-8.5-6.71,1.35L70,80.79l-1.28-9.85,0-.19L91.3,89.24,79.09,93ZM21,79.44l12.35.81L33,84Zm13.76,0-3-14.12,5.37,11.13,3,6.14L37.56,99.67,34.81,79.52Zm4.45,25.7,5.76.13,9.92.22-3,8.36L51,116.53l-.85-.82Zm17.12.34,8.75-.31L52.77,115.61ZM98.86,76.06l7.52-31.64,16,22.88ZM74.07,52.31,73.53,23l17,.72ZM72.19,23.46l.56,30.36L51.91,46.7,50.63,37,69.67,25ZM40.25,41.28l3.19-4,3.95,0Zm-3.72,2.86L30.78,56.55l.61-13.17ZM29.6,61.61,32.25,74l1,4.85-15.44-1Zm3.32,23.8-1.64,17.74L18.09,79.76Zm78.39,8.33-10.89,14L99.36,90.09Zm-9.19-17.11-.8,0,21.38-8-.42,8.78Zm18.13-23.08,2,11.19-13.4-19.18ZM96.35,28.93l4.88-2.54L99.51,35a.68.68,0,0,0,.13.54l5.47,7.21-8.55,8.4L92.73,25.37l2.78,3.39A.68.68,0,0,0,96.35,28.93Zm-39-4.55,12.75-1.2-4.74,3-13.6,8.51ZM41.44,37.62l-4.2,5.25L31.47,42l.18-2.54Zm-8.93,67.22,1.76-19.26,2.59,19v.12h0l0,.06v0h0l0,.05,0,0h0l0,0,8.8,8.51Zm20.87,12L60,111.29l6.94-5.85,4.66,6.24L74.07,115Zm22.31-2-6.71-9,26.91,10Z"/></svg>