<svg xmlns="http://www.w3.org/2000/svg" viewBox="0 0 200 200"><defs><style>.a{fill:#424242;}</style></defs><title>icons-4</title><path class="a" d="M70.5,61.5A15.52,15.52,0,0,1,55,46V41a15.5,15.5,0,0,1,31,0v5A15.52,15.52,0,0,1,70.5,61.5Zm0-32A11.51,11.51,0,0,0,59,41v5a11.5,11.5,0,0,0,23,0V41A11.51,11.51,0,0,0,70.5,29.5Z"/><path class="a" d="M128.5,61.5A15.52,15.52,0,0,1,113,46V41a15.5,15.5,0,0,1,31,0v5A15.52,15.52,0,0,1,128.5,61.5Zm0-32A11.51,11.51,0,0,0,117,41v5a11.5,11.5,0,0,0,23,0V41A11.51,11.51,0,0,0,128.5,29.5Z"/><path class="a" d="M144.5,100.5A15.52,15.52,0,0,1,129,85V80a15.5,15.5,0,0,1,31,0v5A15.52,15.52,0,0,1,144.5,100.5Zm0-32A11.51,11.51,0,0,0,133,80v5a11.5,11.5,0,0,0,23,0V80A11.51,11.51,0,0,0,144.5,68.5Z"/><path class="a" d="M54.5,100.5A15.52,15.52,0,0,1,39,85V80a15.5,15.5,0,0,1,31,0v5A15.52,15.52,0,0,1,54.5,100.5Zm0-32A11.51,11.51,0,0,0,43,80v5a11.5,11.5,0,0,0,23,0V80A11.51,11.51,0,0,0,54.5,68.5Z"/><path class="a" d="M99.5,91.5A15.52,15.52,0,0,1,84,76V71a15.5,15.5,0,0,1,31,0v5A15.52,15.52,0,0,1,99.5,91.5Zm0-32A11.51,11.51,0,0,0,88,71v5a11.5,11.5,0,0,0,23,0V71A11.51,11.51,0,0,0,99.5,59.5Z"/><rect class="a" x="156" y="130.5" width="4" height="44"/><rect class="a" x="78" y="120.5" width="4" height="54"/><rect class="a" x="118" y="120.5" width="4" height="54"/><path class="a" d="M41,164.5a17.29,17.29,0,0,1-14.74-8L26,156V119.26l1.11-.55s2-1.13,7.48-6.62c6.46-6.46,23.57-7.54,24.3-7.58l.24,4c-4.52.27-17.23,1.94-21.7,6.42A66.47,66.47,0,0,1,30,121.58v33.33a13.34,13.34,0,0,0,11,5.59Z"/><path class="a" d="M80,156.5a17.29,17.29,0,0,1-14.74-8L65,148V111.26l1.11-.55s2-1.13,7.48-6.62c6.46-6.46,23.57-7.54,24.3-7.58l.24,4c-4.52.27-17.23,1.94-21.7,6.42A66.47,66.47,0,0,1,69,113.58v33.33a13.34,13.34,0,0,0,11,5.59Z"/><path class="a" d="M159,164.5v-4a13.34,13.34,0,0,0,11-5.59V121.58a66.47,66.47,0,0,1-7.41-6.66c-4.47-4.47-17.18-6.15-21.7-6.42l.24-4c.73,0,17.83,1.12,24.3,7.58,5.5,5.5,7.44,6.6,7.52,6.65l1,.57,0,1.2V156l-.26.46A17.29,17.29,0,0,1,159,164.5Z"/><path class="a" d="M120,156.5v-4a13.34,13.34,0,0,0,11-5.59V113.58a66.47,66.47,0,0,1-7.41-6.66c-4.47-4.47-17.18-6.15-21.7-6.42l.24-4c.73,0,17.83,1.12,24.3,7.58,5.5,5.5,7.44,6.6,7.52,6.65l1,.57,0,1.2V148l-.26.46A17.29,17.29,0,0,1,120,156.5Z"/><rect class="a" x="97" y="96.5" width="6.57" height="4"/></svg>