<svg xmlns="http://www.w3.org/2000/svg" viewBox="0 0 140 140"><defs><style>.a{fill:#4a7852;}</style></defs><title>icons-6</title><path class="a" d="M109.65,106.05a.89.89,0,0,0-.9-.24,10.83,10.83,0,0,1-4.64.36c-.55-.08-1.11-.2-1.66-.31a12.43,12.43,0,0,0-4-.39,5.48,5.48,0,0,0-1.31.31l-.12.06a23.91,23.91,0,0,1-8.6-5.1c-3.78-3.52-7.32-9.21-6.62-14.58a23,23,0,0,0,.54-5.56c-.24-2.07-1.36-3.92-2-5.89C76.8,64.5,86.67,57.37,91.89,49.63q1-.87,2-1.8l.48-.44c2.86-2.65,5.56-5.15,9-5.8a.89.89,0,0,0-.3-1.75c-1.87.28-3.67-.65-5.58-1.63-.82-.42-1.66-.85-2.52-1.19-3.74-1.48-7.85-1.17-11-.74-1,.13-1.92.29-2.88.44a43,43,0,0,1-7.61.78c-2.39,0-2.56.18-2.74-1.85-.21-2.27.36-4.45-.11-6.84-1-5.2-3.21-10-4.36-15.19q-3.5,1-6.91,2.24A10.32,10.32,0,0,1,62,19.62q1.34,2.77,2.46,5.65c1,2.65,2,5.65,1.43,8.52-.37,2-.63,2.44-2.56,2.07A48.9,48.9,0,0,0,58.15,35a28.3,28.3,0,0,0-17.62,4.36c-.61.39-1.21.81-1.8,1.22a18.08,18.08,0,0,1-5.16,2.84.82.82,0,0,0-.88.8,1,1,0,0,0,.76,1h.18a9.9,9.9,0,0,1,4.08,2l.82.57c.63.43,1.28.82,1.95,1.19a49,49,0,0,0,6,5.3c5.09,4,7.69,11.77,7.3,18.11-.29,4.67-2.27,9.4-.94,13.88.64,2.15,2,4.16,2,6.4A8.49,8.49,0,0,1,53,97.18a26.27,26.27,0,0,1-10.72,8.77c-.82,0-1.63,0-2.45.08a79.86,79.86,0,0,0-9,1,.89.89,0,0,0-.47,1.51l.18.17.16.15A22.31,22.31,0,0,1,35,113.64c.75,1,1.53,2.1,2.39,3.08,7.19,8.19,18.85,9.11,25.17,9,.88,0,1.76-.07,2.63-.11,1.53-.07,3.11-.15,4.65-.12,1.87,0,3.8.25,5.66.46a59.77,59.77,0,0,0,6.51.47,22.72,22.72,0,0,0,4.27-.37c7-1.32,12.51-6.47,17-10.6,2.48-2.3,5.3-4.91,6.6-8.44A.89.89,0,0,0,109.65,106.05ZM36.26,44.29a30.59,30.59,0,0,0,3.48-2.2c.58-.4,1.16-.81,1.75-1.19A26.5,26.5,0,0,1,58,36.81c3.07.26,6.45.71,9.07,2.44a11.69,11.69,0,0,1,3.32,4.1C69.5,41.83,73,39,74.16,38.89c.88-.1,1.84.27,2.76.22a41.92,41.92,0,0,0,4.46-.64c.94-.15,1.89-.31,2.84-.43,2.95-.4,6.77-.7,10.12.63.78.31,1.55.7,2.37,1.12a25.51,25.51,0,0,0,2.85,1.32c-1.25-.46-5.23,3.73-6.25,4.4a19.29,19.29,0,0,1-15,2.68c-1.28-.29-5-1-5.24-2.56-4,5.46-10.76,6.72-17.11,6.12-5.75-.55-11.65-2-16.46-5.33l-.8-.56A20.59,20.59,0,0,0,36.26,44.29ZM54.44,98.2a10.17,10.17,0,0,0,2.13-5.36,11.57,11.57,0,0,0-1.26-5,18.93,18.93,0,0,1-.76-2c-.76-2.55-.25-5.34.3-8.29a41.73,41.73,0,0,0,.71-5C56,65.1,52.74,57,47.59,53l-.12-.09A56.15,56.15,0,0,0,62.56,54.7a16.56,16.56,0,0,0,7.66-1.37c.29-.15.58-.32.88-.49a4.45,4.45,0,0,1,1.71-.73h.09a3.7,3.7,0,0,1,1.16.58l.35.22a14.22,14.22,0,0,0,11.65,1.3C81.17,60,75.67,66.67,78.6,75.29c.25.74.55,1.44.84,2.11a12.81,12.81,0,0,1,1.11,3.41,12.84,12.84,0,0,1-.29,3.53c-.09.53-.18,1.06-.25,1.6-.8,6.19,3.18,12.38,7.17,16.1a25.68,25.68,0,0,0,7,4.65c-.38.36-.72.73-1.05,1.09s-.71.77-1.06,1.09a8.3,8.3,0,0,1-5.57,2.08,8,8,0,0,1-4-1l-.53-.32a7.41,7.41,0,0,0-2.74-1.19,4.93,4.93,0,0,0-.8-.07,8.47,8.47,0,0,0-4.1,1.4,5.88,5.88,0,0,1-2.41,1h-.18a4.89,4.89,0,0,1-1.62-.76,7.45,7.45,0,0,0-3.07-1.25,4.91,4.91,0,0,0-.55,0,8.09,8.09,0,0,0-3.64,1.11,9.72,9.72,0,0,1-1.54.67,3.81,3.81,0,0,1-1.05.14,8.13,8.13,0,0,1-3.86-1.24c-.61-.34-1.2-.72-1.8-1.1A22.18,22.18,0,0,0,50.46,106a14.55,14.55,0,0,0-3.22-.77A27.57,27.57,0,0,0,54.44,98.2ZM102,114a43.27,43.27,0,0,1-3.79,2.72,32.8,32.8,0,0,1-11.55,4.62c-5.46,1-12.84.11-15.22-5.66.26.64-5.34,3-6,3.26a18.6,18.6,0,0,1-8.58.65,14.1,14.1,0,0,1-3.57-.71,11.44,11.44,0,0,1-4.61-3.59c-.93-1.13-1.78-2.54-1.47-4-2.48,1.39-5.33,2.65-8.08,1.93s-4.3-2.87-6-4.82a67.68,67.68,0,0,1,6.85-.66c1.12-.06,2.24-.1,3.37-.11a17.15,17.15,0,0,1,6.26.78,19.87,19.87,0,0,1,3.67,2c.63.4,1.27.8,1.92,1.17,2.59,1.46,4.93,1.91,7,1.33a11.85,11.85,0,0,0,2-.84,5.19,5.19,0,0,1,2.71-.82,5.26,5.26,0,0,1,2,.88,6.9,6.9,0,0,0,2.65,1.12,6.88,6.88,0,0,0,4.23-1.26,5.28,5.28,0,0,1,3.18-1,5.23,5.23,0,0,1,1.77.83l.61.37a11,11,0,0,0,12.68-1.4c.42-.39.82-.81,1.22-1.24a7.69,7.69,0,0,1,2.66-2.16,3.71,3.71,0,0,1,.89-.2,10.82,10.82,0,0,1,3.43.37c.6.12,1.19.25,1.78.33a12.65,12.65,0,0,0,3.6,0A22.09,22.09,0,0,1,102,114Z"/><path class="a" d="M63.51,82.4a4.16,4.16,0,0,0,.37-1.66,19.45,19.45,0,0,0-.45-5.29c-.09-.4-.35-.89-.75-.81a.76.76,0,0,0-.41.29,4.27,4.27,0,0,0-.33.45c-1,1.59-1.88,4.71-1.43,6.24S62.5,84.38,63.51,82.4Z"/><path class="a" d="M71.57,83.28a1.75,1.75,0,0,0,1.55-1.36,4.86,4.86,0,0,0,0-2.21A13,13,0,0,0,71.32,75a1.15,1.15,0,0,0-.58-.51.81.81,0,0,0-.84.39c-1,1.52-.56,4.74-.16,6.38C70,82.23,70.6,83.28,71.57,83.28Z"/></svg>