<svg xmlns="http://www.w3.org/2000/svg" viewBox="0 0 200 200"><defs><style>.a{fill:#424242;}</style></defs><title>icons-4</title><path class="a" d="M35.11,113.76l-.05-.2a66.79,66.79,0,0,1,50-81.07l.16,0,.87,3.91-.14,0a62.83,62.83,0,0,0-47,76.22l0,.18Z"/><path class="a" d="M152.23,63a63.25,63.25,0,0,0-31.31-24.52l1.34-3.77a67.27,67.27,0,0,1,33.3,26.08Z"/><path class="a" d="M87.5,163.19a66.56,66.56,0,0,1-32.33-16l2.68-3a62.56,62.56,0,0,0,30.38,15.08Z"/><path class="a" d="M56,79.28l-3.69-1.54A51.59,51.59,0,0,1,83,48.9l1.31,3.78A47.58,47.58,0,0,0,56,79.28Z"/><path class="a" d="M82.61,146.11a51.37,51.37,0,0,1-12.47-6.48l2.31-3.26a47.36,47.36,0,0,0,11.49,6Z"/><path class="a" d="M99.89,114.13a16.54,16.54,0,1,1,16.54-16.54A16.56,16.56,0,0,1,99.89,114.13Zm0-29.08a12.54,12.54,0,1,0,12.54,12.54A12.56,12.56,0,0,0,99.89,85Z"/><circle class="a" cx="99.73" cy="97.74" r="6.39"/><path class="a" d="M103,85.37a8.4,8.4,0,0,1-2-.25c-7.51-1.83-8.33-12.84-8.36-13.31v-.13l0-41.28c.12-.84.86-5.13,3.66-6.59a4.44,4.44,0,0,1,4.21.09c4.9,2.45,11.05,11.25,13.94,18,3.35,7.81,2,21.53.08,28.34C113.21,74.91,110.22,85.37,103,85.37ZM96.62,71.6c.07.71.91,8.57,5.31,9.64,3.43.84,6.14-2.9,8.77-12.11,1.86-6.51,2.92-19,.08-25.66s-8.59-14.27-12.06-16c-.19-.09-.44-.19-.57-.12-.61.32-1.31,2.1-1.54,3.48Z"/><path class="a" d="M43.72,143.47a5.75,5.75,0,0,1-3.1-.79,4.44,4.44,0,0,1-2-3.69c-.33-5.47,4.22-15.2,8.62-21.08,5.09-6.81,17.63-12.52,24.5-14.24,5.14-1.29,17.16-4.3,19.68,4.3,2.17,7.41-7,13.63-7.35,13.89l-.11.07L48.16,142.55A12.94,12.94,0,0,1,43.72,143.47Zm38.11-37.36a39.77,39.77,0,0,0-9.16,1.44c-6.56,1.64-18,7-22.27,12.76s-8.06,14.58-7.83,18.44c0,.21.05.47.18.55.59.37,2.48.09,3.79-.41l35.3-20.38c.58-.41,7-5.07,5.69-9.41C87,107.09,85.13,106.11,81.84,106.11Z"/><path class="a" d="M147.76,137.14a48.26,48.26,0,0,1-5.64-.31c-8.44-1-19.66-9-24.58-14.1-3.68-3.8-12.3-12.71-6.12-19.19,5.33-5.59,15.28-.79,15.71-.58l.12.06L163,123.68c.67.53,4,3.31,3.88,6.47a4.44,4.44,0,0,1-2.18,3.6C161.19,136.05,154.14,137.14,147.76,137.14Zm-29.35-32.3a5.47,5.47,0,0,0-4.1,1.46c-2.44,2.56-.56,6.77,6.1,13.65,4.7,4.86,15,12.05,22.18,12.9s16.65-.31,19.88-2.44c.17-.12.38-.28.39-.43,0-.69-1.16-2.19-2.25-3.07l-35.31-20.38A19,19,0,0,0,118.4,104.84Z"/><rect class="a" x="96.62" y="120.68" width="4" height="56"/><rect class="a" x="112.62" y="136.68" width="4" height="40"/><path class="a" d="M155.65,109.4,153.59,106s4-2.82,4-13.29c0-9.59-9.66-12.57-11.25-13H121.62v-4h25.23l.22.05c5,1.16,14.55,6.2,14.55,16.95C161.62,105.44,156.26,109,155.65,109.4Z"/></svg>