<?xml version="1.0" encoding="utf-8"?>
<!-- Generator: Adobe Illustrator 21.1.0, SVG Export Plug-In . SVG Version: 6.00 Build 0)  -->
<svg version="1.1" id="Layer_1" xmlns="http://www.w3.org/2000/svg" xmlns:xlink="http://www.w3.org/1999/xlink" x="0px" y="0px"
	 viewBox="0 0 140 140" style="enable-background:new 0 0 140 140;" xml:space="preserve">
<style type="text/css">
	.st0{fill:#4A7852;}
</style>
<title>icons-6</title>
<g>
	<path class="st0" d="M69.9,59.1H41c-0.7,0-1.2,0.5-1.2,1.2v0.4c0,0.7,0.5,1.2,1.2,1.2h28.9c0.7,0,1.2-0.5,1.2-1.2v-0.4
		C71.1,59.6,70.6,59.1,69.9,59.1z"/>
	<path class="st0" d="M62.8,80.5H59v-3.8c0-1-0.8-1.8-1.8-1.8h-2.9c-1,0-1.8,0.8-1.8,1.8v3.8h-3.8c-1,0-1.8,0.8-1.8,1.8v2.9
		c0,1,0.8,1.8,1.8,1.8h3.8v3.8c0,1,0.8,1.8,1.8,1.8h2.9c1,0,1.8-0.8,1.8-1.8V87h3.8c1,0,1.8-0.8,1.8-1.8v-2.9
		C64.6,81.3,63.8,80.5,62.8,80.5z"/>
	<path class="st0" d="M61.7,106h-12c-1.6,0-2.8,1.3-2.8,2.8v0.8c0,1.6,1.3,2.8,2.8,2.8h12c1.6,0,2.8-1.3,2.8-2.8v-0.8
		C64.6,107.3,63.3,106,61.7,106z"/>
	<path class="st0" d="M74.1,52.9h-7.3V49c0-2.3-1.2-3.8-3.1-3.8H48.3c-2.1,0-4,1.7-4,3.8v3.9h-6.5c-2.4,0-4.2,1.8-4.2,4.1v68.9
		c0,2.3,1.9,4.1,4.2,4.1h36.3c2.3,0,3.9-1.7,3.9-4.1V57C78,54.6,76.4,52.9,74.1,52.9z M76,123.9H35.7V57c0-1.2,1-2.1,2.2-2.1h7.5
		c0.6,0,1-0.5,1-1V49c0-0.9,0.9-1.7,1.9-1.7h15.4c0.3,0,1.1,0,1.1,1.7v4.9c0,0.6,0.5,1,1,1h8.3c1.4,0,1.9,1.1,1.9,2.1V123.9z"/>
	<g>
		<path class="st0" d="M100.9,43.3h-7.9c-0.7,0-1.2,0.5-1.2,1.2v0.4c0,0.7,0.5,1.2,1.2,1.2h7.9c0.7,0,1.2-0.5,1.2-1.2v-0.4
			C102.1,43.8,101.5,43.3,100.9,43.3z"/>
		<path class="st0" d="M100.9,54.7h-7.9c-0.7,0-1.2,0.5-1.2,1.2v0.4c0,0.7,0.5,1.2,1.2,1.2h7.9c0.7,0,1.2-0.5,1.2-1.2v-0.4
			C102.1,55.2,101.5,54.7,100.9,54.7z"/>
		<path class="st0" d="M100.9,31.8h-7.9c-0.7,0-1.2,0.5-1.2,1.2v0.4c0,0.7,0.5,1.2,1.2,1.2h7.9c0.7,0,1.2-0.5,1.2-1.2V33
			C102.1,32.3,101.5,31.8,100.9,31.8z"/>
		<path class="st0" d="M102.1,10h-9.9c-2.3,0-3.9,1.7-3.9,4.1v91.9v8c0,2.4,1.6,4.1,3.9,4.1h1.6v7.3c0,2.2,1.4,3.6,3.2,3.7
			c2-0.2,3.3-1.8,3.3-3.7V118h0.7c2.4,0,4.2-1.8,4.2-4.1l0.1-8l1.1-91.9C106.4,11.8,104.5,10,102.1,10z M103.3,105.9l-0.1,5.3h-4.6
			v-5.3v-2.7h2.2c0.7,0,1.2-0.5,1.2-1.2v-0.4c0-0.7-0.5-1.2-1.2-1.2h-2.2v-8.7h2.2c0.7,0,1.2-0.5,1.2-1.2v-0.4
			c0-0.7-0.5-1.2-1.2-1.2h-2.2v-8.7h2.2c0.7,0,1.2-0.5,1.2-1.2v-0.4c0-0.7-0.5-1.2-1.2-1.2h-2.2v-8.7h2.2c0.7,0,1.2-0.5,1.2-1.2
			v-0.4c0-0.7-0.5-1.2-1.2-1.2h-7.9c-0.7,0-1.2,0.5-1.2,1.2v0.4c0,0.7,0.5,1.2,1.2,1.2h2.3v8.7h-2.3c-0.7,0-1.2,0.5-1.2,1.2v0.4
			c0,0.7,0.5,1.2,1.2,1.2h2.3v8.7h-2.3c-0.7,0-1.2,0.5-1.2,1.2v0.4c0,0.7,0.5,1.2,1.2,1.2h2.3v8.7h-2.3c-0.7,0-1.2,0.5-1.2,1.2v0.4
			c0,0.7,0.5,1.2,1.2,1.2h2.3v2.7v5.3h-4.9v-5.3l0.1-85.2c-0.1-2.6,2-4.7,4.6-4.7h4.6c2.6,0,4.6,2.1,4.6,4.7L103.3,105.9z"/>
	</g>
</g>
</svg>
