<svg xmlns="http://www.w3.org/2000/svg" viewBox="0 0 140 140"><defs><style>.a{fill:#4a7852;}</style></defs><title>icons-6</title><path class="a" d="M92.67,39.64a7.51,7.51,0,0,0-4.11-4.45h0a18.08,18.08,0,0,1,.21-2.4,11.43,11.43,0,0,0-.23-5.62c-.88-2.41-5-4.5-8.27-5.83a17.62,17.62,0,0,0-2-.66l-.18-.53a3.66,3.66,0,0,0,.84-4.29A3.26,3.26,0,0,0,78,14.66c-1.8-1.47-4.72-2.31-8-2.31a13,13,0,0,0-8,2.31,3.14,3.14,0,0,0-1.17,2.13,4.2,4.2,0,0,0,1.1,3.27c0,.15-.07.32-.1.45l0,.21a30.12,30.12,0,0,0-9.29,4.84A3.13,3.13,0,0,0,51.25,28v7.28a7.08,7.08,0,0,0-3.94,4.07,11.23,11.23,0,0,0-.22,4.12c0,.54.07,1.15.07,1.66s0,1-.06,1.62a12,12,0,0,0,.18,3.88A7,7,0,0,0,51,54.81v1.75a12.38,12.38,0,0,0-3.53,4,3,3,0,0,0-.33,1.37v51.82c0,.56,0,1.23-.09,1.82a11.85,11.85,0,0,0,.25,4.6c1.12,3.29,5.52,4.77,9.93,6l.12,0a43.68,43.68,0,0,0,11.69,1.49c8.35,0,16.85-2.08,22.18-5.42a3.16,3.16,0,0,0,1.53-2.67V61.89a3,3,0,0,0-.44-1.57,13.39,13.39,0,0,0-3.42-3.79V54.78l.19-.12a8.43,8.43,0,0,0,3.36-3.32,3,3,0,0,0,.27-1.85,15.79,15.79,0,0,1,.09-4A15.7,15.7,0,0,0,92.67,39.64Zm-2.79,5.59a18.4,18.4,0,0,0-.07,4.8,5.86,5.86,0,0,1-2.29,2.13c-.35.22-.69.44-1,.66A1.48,1.48,0,0,0,86,54v3.29a1.48,1.48,0,0,0,.65,1.23,10.51,10.51,0,0,1,3.21,3.37v57.67s0,.09-.14.16c-4.89,3.07-12.79,5-20.61,5a40.73,40.73,0,0,1-10.9-1.39l-.12,0c-2.52-.7-7.22-2-7.92-4.09a10.07,10.07,0,0,1-.1-3.44c0-.64.1-1.36.1-2V61.86A10,10,0,0,1,53,58.79l.47-.38A1.48,1.48,0,0,0,54,57.27V53.93a1.48,1.48,0,0,0-.75-1.29l-.42-.23a4.71,4.71,0,0,1-2.69-2.6,10.44,10.44,0,0,1-.07-2.94c0-.59.07-1.2.07-1.75s0-1.27-.08-1.85a9.51,9.51,0,0,1,.08-3,4.6,4.6,0,0,1,2.66-2.44c.21-.1.48-.24.68-.36a1.48,1.48,0,0,0,.74-1.28V28s0-.06.09-.13a28.14,28.14,0,0,1,9.17-4.6,1.47,1.47,0,0,0,.76-.58H75.79a1.47,1.47,0,0,0,.91.66,16,16,0,0,1,2.43.74c3.93,1.59,6.29,3.26,6.6,4.09a8.9,8.9,0,0,1,.08,4.22,15.86,15.86,0,0,0-.19,3.84,1.48,1.48,0,0,0,.68,1.09c.25.16.53.31.82.47a4.74,4.74,0,0,1,2.69,2.66A13.58,13.58,0,0,1,89.88,45.24Z"/></svg>