<svg xmlns="http://www.w3.org/2000/svg" viewBox="0 0 200 200"><defs><style>.a{fill:#424242;}</style></defs><title>icons-4</title><path class="a" d="M71.1,159a30.71,30.71,0,0,1-30.67-30.67c0-11.81,4.94-16.62,10.17-21.7,1.31-1.27,2.66-2.59,4-4.07A62.06,62.06,0,0,0,68.79,77.08a2.36,2.36,0,0,1,4.56-.19A73.52,73.52,0,0,0,87.6,101.37c1.16,1.29,2.32,2.48,3.44,3.64,5.76,5.94,10.74,11.07,10.74,23.31A30.71,30.71,0,0,1,71.1,159Zm.2-74.39a69.85,69.85,0,0,1-13.2,21.12c-1.44,1.59-2.85,3-4.21,4.28-5.07,4.93-8.74,8.5-8.74,18.32a26,26,0,1,0,51.91,0c0-10.32-3.94-14.39-9.41-20-1.15-1.18-2.34-2.41-3.56-3.77A77.37,77.37,0,0,1,71.3,84.6Z"/><path class="a" d="M136.09,146a23.52,23.52,0,0,1-23.49-23.49c0-9.07,3.77-12.74,7.77-16.62,1-.94,2-1.92,3-3a46.05,46.05,0,0,0,10.45-18.73A2.36,2.36,0,0,1,136,82.31,2.32,2.32,0,0,1,138.34,84a54.27,54.27,0,0,0,10.5,18c.87,1,1.73,1.85,2.55,2.7,4.21,4.34,8.18,8.44,8.18,17.81A23.52,23.52,0,0,1,136.09,146Zm.18-54.62a52.92,52.92,0,0,1-9.44,14.67c-1.09,1.2-2.15,2.23-3.17,3.22-3.82,3.71-6.34,6.17-6.34,13.24a18.77,18.77,0,1,0,37.54,0c0-7.46-2.87-10.42-6.85-14.52-.86-.89-1.76-1.82-2.67-2.83A57.88,57.88,0,0,1,136.27,91.39Z"/><path class="a" d="M105.57,95.28A20.13,20.13,0,0,1,85.46,75.17c0-7.78,3.23-10.91,6.64-14.23.81-.79,1.65-1.6,2.48-2.51a38.31,38.31,0,0,0,8.69-15.56,2.36,2.36,0,0,1,4.56-.18,45.22,45.22,0,0,0,8.74,15c.73.81,1.44,1.54,2.13,2.26,3.59,3.7,7,7.2,7,15.22A20.13,20.13,0,0,1,105.57,95.28Zm.17-45.36A44.86,44.86,0,0,1,98.07,61.6c-.92,1-1.82,1.88-2.68,2.72-3.14,3.05-5.21,5.07-5.21,10.85a15.39,15.39,0,1,0,30.78,0c0-6.11-2.25-8.43-5.65-11.94-.73-.75-1.49-1.53-2.25-2.38A48.71,48.71,0,0,1,105.74,49.92Z"/></svg>