<svg xmlns="http://www.w3.org/2000/svg" viewBox="0 0 140 140"><defs><style>.a,.b{fill:#4a7852;}.b{stroke:#4a7852;stroke-miterlimit:10;stroke-width:0.3px;}</style></defs><title>icons-6</title><path class="a" d="M123.89,69.41v0c0-.4-.59-9.76-3.9-16.37s-6.3-9.53-9.91-9.53A6.27,6.27,0,0,0,106,44.69l-7-2a19.38,19.38,0,0,0-6.69-.27C90,42.94,69.7,49.67,66.6,50.7L40.88,41.43a9,9,0,0,0-8.36.85l-.43.26c-2.72,1.63-6.11,3.66-8.23,6.2a38.58,38.58,0,0,0-6.16,12,42.87,42.87,0,0,0-1.38,15.55,49.63,49.63,0,0,0,2.53,10.11l.22.65C19.7,89,22.59,93.51,25.25,95a11,11,0,0,0,8.88,1.47c3.6-.77,10.2-2.71,11.07-3L49.09,93a13.52,13.52,0,0,0,4-1.61l-4.17.52h0l-1,.13-.75.09-1.4.17L45,92.4s-7.29,2.16-11.08,3A9.93,9.93,0,0,1,25.79,94c-2.43-1.35-5.13-5.67-5.67-7.29a51.47,51.47,0,0,1-2.7-10.54,41.69,41.69,0,0,1,1.35-15.13,37.68,37.68,0,0,1,5.94-11.62c2.1-2.52,5.58-4.54,8.38-6.21a7.9,7.9,0,0,1,7.29-.81l26.21,9.46,1.35-1.08h1.35S90.09,44,92.52,43.5a18.44,18.44,0,0,1,6.21.27l7.56,2.16s.81-1.35,3.78-1.35S115.76,47,119,53.5s3.78,15.94,3.78,15.94.27,10.54-3,16.75-5.13,6.75-7.56,7.29-3.51-.27-3.51-.27A41.4,41.4,0,0,1,102,97.27a11.74,11.74,0,0,1-2.28.65,11.24,11.24,0,0,1-1.76.19,6.44,6.44,0,0,1-.83,0s-6.48-.54-10.27-.81a11.13,11.13,0,0,1-3.35-.78A9.27,9.27,0,0,0,86.79,98a61,61,0,0,0,6.5.81c1.23.11,2.46.22,3.69.37a6.76,6.76,0,0,0,.79,0,12.63,12.63,0,0,0,4.62-.92,38.45,38.45,0,0,0,6.46-3.8,6.61,6.61,0,0,0,3.63.08c2.87-.64,5-1.53,8.31-7.86S123.9,69.85,123.89,69.41Z"/><path class="a" d="M45.72,92.31,45,92.4Z"/><path class="a" d="M69.29,50.8H67.94l-1.35,1.08S90.09,44,92.52,43.5C90.09,44,69.29,50.8,69.29,50.8Z"/><path class="a" d="M102,97.27a11.74,11.74,0,0,1-2.28.65A11.74,11.74,0,0,0,102,97.27Z"/><path class="a" d="M47.87,92l-.75.09Z"/><path class="a" d="M97.94,98.1a6.46,6.46,0,0,1-.83,0A6.43,6.43,0,0,0,97.94,98.1Z"/><path class="a" d="M99.7,97.92a11.25,11.25,0,0,1-1.76.19A11.24,11.24,0,0,0,99.7,97.92Z"/><path class="a" d="M47.11,92.14l-1.4.17Z"/><path class="a" d="M48.9,91.91h0l-1,.13Z"/><path class="a" d="M28,47s1.08-1.35,5.13-3.78c-2.8,1.68-6.27,3.69-8.38,6.21A9.75,9.75,0,0,1,28,47Z"/><path class="b" d="M122.78,69.44S122.24,60,119,53.5s-5.94-8.92-8.92-8.92-3.78,1.35-3.78,1.35l-7.56-2.16a18.44,18.44,0,0,0-6.21-.27c-2.43.54-25.94,8.38-25.94,8.38L40.38,42.42a7.9,7.9,0,0,0-7.29.81C29,45.66,28,47,28,47a9.75,9.75,0,0,0-3.24,2.43,37.68,37.68,0,0,0-5.94,11.62,41.69,41.69,0,0,0-1.35,15.13,51.47,51.47,0,0,0,2.7,10.54c.54,1.62,3.24,5.94,5.67,7.29a9.93,9.93,0,0,0,8.1,1.35c3.78-.81,11.08-3,11.08-3l.74-.09,1.4-.17.75-.09,1-.13,4.17-.52.55-.07,14-3.24a6.58,6.58,0,0,1,2.7,1.08c1.89,1.08,10.27,5.67,10.27,5.67a10.84,10.84,0,0,0,2.86,1.65,11.13,11.13,0,0,0,3.35.78c3.78.27,10.27.81,10.27.81a6.47,6.47,0,0,0,.83,0,11.25,11.25,0,0,0,1.76-.19,11.74,11.74,0,0,0,2.28-.65,41.4,41.4,0,0,0,6.75-4.05s1.08.81,3.51.27,4.32-1.08,7.56-7.29S122.78,69.44,122.78,69.44Zm-4,16.24c-3.07,5.89-4.73,6.26-6.82,6.72a3.9,3.9,0,0,1-2.61-.07l-.66-.49-.66.49a40.66,40.66,0,0,1-6.51,3.92,9.9,9.9,0,0,1-4.31.74c-1.26-.16-2.51-.27-3.77-.38a59.18,59.18,0,0,1-6.26-.78,7.61,7.61,0,0,1-2.62-1.27L83.76,94l-.64-.37a6.93,6.93,0,0,1-1.57-1.09C81,92,78,87,75.37,82.47a2.39,2.39,0,0,0-2.43-2.12,30.19,30.19,0,0,1-5.06-1.21,1.58,1.58,0,0,0-.62-.32,2,2,0,0,0-1.69.37c-.15.1-.64.51-1.37,1.13-2.85,2.43-11.53,9.81-15.44,10.5l-3.92.49-.18,0c-.07,0-7.3,2.16-11,2.95a8.87,8.87,0,0,1-7.33-1.24c-2-1.14-4.64-5.12-5.16-6.68l-.23-.67a46.75,46.75,0,0,1-2.42-9.65,40.44,40.44,0,0,1,1.32-14.7,36.43,36.43,0,0,1,5.73-11.2c1.87-2.25,5.08-4.17,7.66-5.72l.43-.26A6.84,6.84,0,0,1,40,43.47l26.57,9.59.36-.12C75,50.23,90.88,45,92.76,44.59a17.49,17.49,0,0,1,5.67.25L106,47l.77.16.46-.62s.66-.85,2.86-.85c1.76,0,4.25.94,7.92,8.3,3,6.07,3.64,15,3.67,15.49S121.84,79.91,118.83,85.68Z"/><path class="a" d="M108.35,80.21c-.28,0-.43-.15-.74-.47-.58-.58-1.47-3.6-1.73-4.51l-.82-4.09a6.45,6.45,0,0,1,.59-4.36,31.41,31.41,0,0,1,1.92-3l.81-1.08a2.14,2.14,0,0,1,1.65-.9h0a2.54,2.54,0,0,1,1.74.88,11.78,11.78,0,0,1,2,4A26.67,26.67,0,0,1,114,71.6a6.5,6.5,0,0,1-.53,2.59l-2.78,4.4c0,.09-.65,1.56-1.72,1.56a2,2,0,0,0-.43,0ZM110,62.68h0a1.3,1.3,0,0,0-1,.56l-.8,1.06a31.36,31.36,0,0,0-1.86,2.93,5.66,5.66,0,0,0-.5,3.73l.82,4.07a20.08,20.08,0,0,0,1.5,4.1l.19.19a2.85,2.85,0,0,1,.58-.05c.34,0,.76-.64.94-1.07l2.79-4.41a5.67,5.67,0,0,0,.43-2.18,25.88,25.88,0,0,0-.27-4.79h0a11.07,11.07,0,0,0-1.81-3.59h0A1.64,1.64,0,0,0,110,62.68Z"/><path class="a" d="M112.15,76.59a2.49,2.49,0,0,0,1.11,0c1.16-.19,3.42-4.33,2.34-11.11-.92-5.78-2.66-8.77-4-9.64a1.41,1.41,0,0,0-1.15-.26c-1.12.28-1.44,3.71-1.33,6.48a1.82,1.82,0,0,1,.91-.24h0a2.54,2.54,0,0,1,1.74.88,11.78,11.78,0,0,1,2,4A26.67,26.67,0,0,1,114,71.6a6.5,6.5,0,0,1-.53,2.59,9.91,9.91,0,0,1-1,1.74l-.16.23a3.57,3.57,0,0,0-.2.32Z"/><path class="a" d="M112.89,66.81a11.38,11.38,0,0,0-1.81-3.6,1.66,1.66,0,0,0-1-.53,1.3,1.3,0,0,0-1,.55l-.71.85-.07-1.1c-.11-1.28-.44-7.7,2-8.28a2.22,2.22,0,0,1,1.84.37c1.92,1.26,3.55,5.09,4.38,10.25a22.11,22.11,0,0,1,.3,3.62c0,4.93-1.76,8.23-3.37,8.5a5.76,5.76,0,0,1-.87.09,1.56,1.56,0,0,1-1-.28.75.75,0,0,1-.2-.23l-.05-.07a.87.87,0,0,1,.07-.83,3.65,3.65,0,0,1,.27-.43l.16-.25a9.07,9.07,0,0,0,.92-1.6,5.73,5.73,0,0,0,.46-2.23A25.77,25.77,0,0,0,112.89,66.81Z"/><path class="a" d="M107.11,68.09a2.92,2.92,0,0,1,1.08,1.62c.27,1.08.81,3.51.81,3.51a11.76,11.76,0,0,1,0,3.24c-.27,1.35-.27,1.08-.27,1.08a3.68,3.68,0,0,1-.81-1.62,27.24,27.24,0,0,1-1.08-5.4A8.48,8.48,0,0,1,107.11,68.09Z"/><path class="a" d="M103.17,90.39a1.1,1.1,0,0,1-.63-.2c-.24-.17-4.1-2.52-4.1-18.32a80.12,80.12,0,0,1,2.35-21.32,1.11,1.11,0,0,1,2.07.79,82.26,82.26,0,0,0-2.21,20.5c0,14.48,3.12,16.5,3.17,16.53a1.11,1.11,0,0,1-.65,2Z"/><path class="a" d="M43,70a2.53,2.53,0,0,1-.77.39,1.44,1.44,0,0,1-1.86-1A2,2,0,0,1,41,68a33.51,33.51,0,0,1,8.1-6.19q2.63-1.59,5.29-3.11l2.67-1.51a10.63,10.63,0,0,1,2.64-1.38c-.06.68-1.81,1.62-2.37,2.05l-2.83,2.22q-2.75,2.17-5.44,4.42c-1.57,1.32-3.13,2.65-4.6,4.08A13.82,13.82,0,0,1,43,70Z"/></svg>