<svg xmlns="http://www.w3.org/2000/svg" viewBox="0 0 200 200"><defs><style>.a{fill:#424242;}</style></defs><title>icons-4</title><path class="a" d="M90.29,84.86a24.64,24.64,0,0,1-6.15-.79c-10.73-2.76-20.76-12.28-29.8-28.3l-1.84-3.27,3.74.29C78.8,54.55,93.16,60,98.94,69a14.81,14.81,0,0,1,2,12.47l-.24.65-.59.37A19.86,19.86,0,0,1,90.29,84.86ZM59.79,57.12C67.65,70,76.37,77.94,85.14,80.19a18.39,18.39,0,0,0,12.24-.78,11.3,11.3,0,0,0-1.87-8.36C92.17,65.95,83.23,59.52,59.79,57.12Z"/><path class="a" d="M128.08,83.55q-2.73,0-5.67-.27l.37-4c11.94,1.11,20.75-1.39,26.18-7.43,10.89-12.09,6.21-35.5,4.67-43.19l3.92-.78c1.64,8.18,6.61,33.06-5.62,46.65C146.54,80.53,138.53,83.55,128.08,83.55Z"/><path class="a" d="M128.08,83.55q-2.73,0-5.67-.27l.37-4c11.94,1.11,20.75-1.39,26.18-7.43,9.51-10.56,7.14-29.76,5.37-39.57-3.91,2.7-10.26,4.46-17.35,6.43-8.74,2.42-18.65,5.17-22.9,9.9-9.67,10.74-5.35,20.79-2.61,25.12,7.87-11.08,28-25.44,29-26.09l2.31,3.26c-.24.17-23.69,16.86-29.4,27.33L112,80.73l-1.89-2.12c-4.88-5.49-10.95-19.38,1-32.67,5-5.59,15.08-8.38,24.8-11.08,7.86-2.18,16-4.43,18-7.65l2.67-4.27,1,4.94c1.64,8.18,6.61,33.06-5.62,46.65C146.54,80.53,138.53,83.55,128.08,83.55Z"/><path class="a" d="M80.61,107.56a11.64,11.64,0,0,1,7.19-12.12c4.28-1.84,6.11-1.65,7.72-1.49a8.85,8.85,0,0,0,4.43-.57c2.12-.71,2.41-1.34,2.8-2.22A5.67,5.67,0,0,1,107,87.6l2.7-10.8,3.88,1L110.22,91l-1.29.22-.35.07c-1.65.35-1.78.63-2.16,1.49-.71,1.57-1.7,3.21-5.18,4.37a12.58,12.58,0,0,1-6.09.75c-1.3-.13-2.42-.24-5.75,1.19A7.56,7.56,0,0,0,84.57,107Z"/><path class="a" d="M145.76,108.07c-1-2.33-3.35-5.79-5.16-5.79-.69,0-1.41.07-2.17.15-3.45.34-7.75.76-13.24-4.73-3.12-3.12-4.64-3-6.24-2.86a6.28,6.28,0,0,1-4.46-.89,16.61,16.61,0,0,1-2.32-1.9c-1.16-1.09-1.33-1.26-3.09-.82l-1-3.88c3.61-.9,5.1.18,6.81,1.79a12.94,12.94,0,0,0,1.79,1.48c.51.34.88.32,1.9.24,2.62-.22,5.31-.08,9.41,4s6.88,3.89,10,3.58c.83-.08,1.68-.17,2.56-.17,5.17,0,8.48,7.37,8.84,8.21Z"/><path class="a" d="M121.59,133.28h-25v-4h25c.71,0,7-.22,7-6,0-5.54-5.86-6-6.86-6a48.94,48.94,0,0,1-26-4.19c-12.35-5.7-16.74-3.82-23.37-1s-18.2,15.39-18.32,15.52l-2.94-2.71c.5-.54,12.37-13.35,19.68-16.48,7.85-3.36,13.33-5.11,26.63,1a45.2,45.2,0,0,0,23.83,3.84l.33,0c3.8,0,11,2.09,11,10S125.4,133.28,121.59,133.28Z"/><path class="a" d="M79.32,154.14l-1.47-3.72c.22-.09,5.58-2.16,16.92-1.13,10.73,1,27.53,0,27.7,0l.38,0,.37.12s5.18,1.39,13-5.6c8.2-7.29,15.37-15.16,19.67-21.61,3.12-4.69,8.83-15.13,11-19.18a19.61,19.61,0,0,0-4.35-1.8c-4-1.07-7.16-.25-9.49,2.41-1.83,2.09-3.31,3.9-4.62,5.5-3.73,4.56-6.19,7.57-11,10l-6,3-1.79-3.58,6-3c4-2,6-4.47,9.68-8.92,1.33-1.63,2.84-3.47,4.71-5.61,6.49-7.42,16.37-3.44,20.68-.3l1.41,1-.82,1.54c-.33.62-8.09,15.16-12.1,21.17-4.48,6.72-11.89,14.88-20.33,22.39s-14.8,6.88-16.51,6.52c-2.4.13-17.65.92-28,0S79.37,154.12,79.32,154.14Z"/><path class="a" d="M69.5,177.05a10,10,0,0,1-7.07-2.92L30.75,142.44a10,10,0,0,1,0-14.14l6.36-6.36a10,10,0,0,1,14.14,0l31.69,31.69a10,10,0,0,1,0,14.14l-6.36,6.36A10,10,0,0,1,69.5,177.05ZM44.18,123a6,6,0,0,0-4.24,1.75l-6.36,6.36a6,6,0,0,0,0,8.49L65.26,171.3a6,6,0,0,0,8.49,0l6.36-6.36a6,6,0,0,0,0-8.49L48.43,124.76A6,6,0,0,0,44.18,123Z"/><circle class="a" cx="48.09" cy="139.78" r="4"/></svg>